<?xml version="1.0" encoding="utf-8"?>
<!-- Generator: Adobe Illustrator 23.0.3, SVG Export Plug-In . SVG Version: 6.00 Build 0)  -->
<svg version="1.1" id="Calque_1" xmlns="http://www.w3.org/2000/svg" xmlns:xlink="http://www.w3.org/1999/xlink" x="0px" y="0px"
	 viewBox="0 0 485.19 485.19" style="enable-background:new 0 0 485.19 485.19;" xml:space="preserve">
<style type="text/css">
	.st0{fill:#FEFDFD;}
	.st1{fill:#226594;}
	.st2{fill:#F2792B;}
	.st3{fill:#296A97;}
	.st4{fill:#EF612D;}
	.st5{fill:#D4734A;}
</style>
<path class="st0" d="M485.09,242.59c0,79.5-0.03,159,0.1,238.5c0.01,3.42-0.67,4.1-4.1,4.09c-159-0.11-318-0.11-477,0
	c-3.42,0-4.1-0.67-4.09-4.09c0.11-159,0.11-318,0-477C0,0.67,0.67,0,4.09,0c159,0.11,318,0.11,477,0c3.42,0,4.1,0.67,4.1,4.09
	C485.07,83.59,485.09,163.09,485.09,242.59z M228.21,156.29c0.65-0.17,1.09-0.5,0.97-1.27c0.17-0.15,0.19-0.32,0.05-0.5
	c1.04-0.86,2.27-1.61,2.1-3.25l-0.09,0.04c0.64-0.16,0.92-0.57,0.84-1.23c2.68-2.73,5.36-5.45,8.04-8.18
	c0.44,0.37,0.88,0.75,1.32,1.12c-0.18,1.19-0.37,2.38-0.55,3.58c-0.86,0.64-1.05,1.52-0.91,2.53c-0.21,0.14-0.23,0.3-0.07,0.5
	c-0.88,0.63-1.08,1.51-0.93,2.52l-0.17,0.23l0.11,0.26c-0.88,0.61-1.02,1.49-0.87,2.47c-0.23,0.69-0.45,1.38-0.68,2.07
	c-1.81,3.8-2.21,7.95-2.65,12.02c-1.21,11.14-0.22,22.05,4.18,32.49l0.01,0.36c-0.01,0.77,0.31,1.33,1,1.68l-0.08,0.3
	c-0.02,0.81,0.33,1.39,1.06,1.74l-0.12,0.28c3.37,9.03,8.97,16.65,15.51,23.56c8.9,9.4,19.02,17.65,26.01,28.83
	c12.62,20.18,8.77,43.49-9.84,57.92c-6.16,4.78-13.44,6.84-21.47,8.11c2.74,2.3,5.41,2.59,8.26,2.72
	c18.06,0.82,34.68-3.78,49.69-13.7c7.44-4.92,14.91-10.04,19.29-18.28l-0.05,0.05c1.87-0.75,2.87-2.1,2.89-4.14
	c1.41-1.38,2.48-2.98,3.09-4.87c0.88-0.97,2-1.8,2.61-2.92c12.81-23.19,14.03-46.92,2.35-70.79c-4.88-9.98-10.83-19.45-16.55-29
	c-5.45-9.1-8.56-18.65-7.74-29.39c0.28-3.67,1.98-7.14,1.5-10.93c-7.56,2.85-14.91,12.26-17.11,21.37
	c-1.83,7.59-0.16,14.84,1.55,22.14c1.15,4.91-0.86,10.15-4.72,12.14c-4.59,2.38-8.31,0.41-11.73-2.67
	c-2.14-1.92-3.74-4.21-5.04-6.77c-6.9-13.63-4.98-27.33-0.76-41.23c5.74-18.9,11.93-37.68,9.55-58.04
	c-2.37-20.34-10.36-37.92-23.9-53.12c-8.59-11.13-19.52-19.44-31.77-27c0,1.11-0.1,1.46,0.02,1.72c0.4,0.91,0.83,1.82,1.33,2.68
	c17.58,30.3,12.94,58.89-6.6,86.36c-11.54,16.21-25.83,29.99-39.19,44.61c-17.85,19.54-35.03,39.74-44.67,64.9
	c-13.08,34.14-12.58,67.26,7.73,99.07c6.38,10,14.14,18.46,22.9,26.12c3.93,3.44,8.02,7.07,13.34,7.92
	c-14.19-17.45-20.87-37.16-16.67-59.88c3.18-17.23,11.86-31.62,23.55-44.34c7.2-7.84,14.61-15.5,21.93-23.24
	c2.58-2.73,3.41-5.76,2.61-9.58c-2.17-10.34-0.67-20.5,1.8-30.64c1.51-6.18,4.69-11.67,6.57-17.67c0.17-0.16,0.23-0.35,0.16-0.58
	c0.36-0.42,0.73-0.84,1.09-1.27L228.21,156.29z M328.56,320.43c2.17-1.65,3.6-3.84,4.6-6.34c0.64-0.97,1.28-1.95,1.92-2.92
	c1.16-0.72,1.8-1.77,1.96-3.12c0.67-0.47,1.1-1.07,1.02-1.94c4.28-3.04,3.25-8.56,5.88-12.54c2.98-4.52,4.82-9.85,5.03-15.56
	c-4.51,9.3-9.33,18.4-14.88,27.1c0,0,0.01-0.01,0.01-0.01c-1.16,1.17-2.33,2.33-3.48,3.51c-19.52,20.06-42.59,31.44-71.26,29.81
	c-45.73-2.6-69.87-46.73-47.22-86.57c1.04-1.82,2.41-3.55,2.56-5.84c-5.02,1.12-13.72,10.19-18.44,19.13
	c-0.24,0.06-0.35,0.22-0.32,0.47c-12.34,18.85-14.53,38.66-5.31,59.38c1.29,2.9,2.38,6.23,5.52,7.98c0.31,0.7,0.62,1.4,0.93,2.1
	c3.94,6.98,9.85,11.93,16.55,16.08c16.39,10.14,34.22,11.5,52.53,7.86c25.43-5.06,46.31-17.88,62.3-38.43L328.56,320.43z
	 M437.97,223.94c0.01,0,0.02,0,0.04,0c0-29.66,0.01-59.33,0-88.99c0-12.94-5.38-20.4-17.82-24.8c-12.84-4.54-25.66-9.09-38.51-13.59
	c-27.14-9.5-54.29-18.97-81.45-28.41c-1.45-0.5-3.13-1.96-4.55-0.29c-1.22,1.43-0.1,3.07,0.21,4.68c1.29,6.8,3.53,13.51,3.14,20.52
	c-0.22,4,1.18,5.79,5.01,7.11c32.93,11.38,65.78,23,98.66,34.52c8.43,2.95,8.46,2.89,8.46,11.7c0.04,54.33,0.1,108.65,0.07,162.98
	c-0.01,14.04-3.96,26.96-12.28,38.32c-5.12,6.99-11.47,12.73-18.45,18c-4.18,3.16-8.79,5.22-13.07,7.96
	c-7.4,4.73-15.12,8.99-22.47,13.81c-6.76,4.43-14.39,8.37-21.75,12.28c-17.39,9.23-33.67,20.39-50.88,29.96
	c-7.05,3.92-14.22,7.78-20.63,12.98c-2.81,2.28-7.13,4.53-11.59,1.57c-5.11-3.39-10.43-6.48-15.71-9.61
	c-37.02-21.98-74.03-44-111.11-65.87C96.1,358.62,84.1,344.6,79.46,324.92c-2.29-9.71-1.9-19.58-1.82-29.53
	c0.35-48.99,0.13-97.98,0.12-146.97c0-11.35,0.06-11.2,10.89-14.99c44.09-15.42,88.14-30.95,132.21-46.39
	c2.55-0.89,4.11-2.6,5.29-4.89c3.92-7.63,6.28-15.74,7.53-24.21c0.27-1.81,1.17-4.01-0.17-5.25c-1.41-1.3-3.49,0.17-5.07,0.73
	c-31.46,11.15-62.86,22.46-94.31,33.63c-21.85,7.76-43.7,15.55-65.66,22.99c-12.65,4.28-19.6,15.06-19.52,27.2
	c0.34,51.82,0.06,103.65,0.1,155.48c0.01,11.76-0.99,23.63,1.24,35.24c3.75,19.52,13.07,36.2,27.36,50.04
	c7.16,6.94,15.57,12.15,24.12,17.17c24.88,14.59,49.77,29.18,74.64,43.8c14.7,8.64,29.69,16.85,43.97,26.15
	c15.12,9.85,29.75,12,45.11,1.12c2.37-1.68,5.21-2.68,7.72-4.2c13.75-8.31,27.43-16.74,41.21-25c8.57-5.14,17.15-10.27,25.94-15.02
	c11.81-6.39,22.65-14.35,34.62-20.52c7.85-4.05,14.8-9.84,22.52-14.18c3.45-1.94,6.37-4.48,9.55-6.67
	c7.96-5.51,13.22-13.71,18.39-21.6c2.95-4.5,5-9.79,7.58-14.67c4.84-9.2,4.69-19.5,4.83-29.42
	C438.24,284.6,437.97,254.27,437.97,223.94z M192.2,126.76c-21.93,8.81-43.15,17.3-64.32,25.91c-3.01,1.22-4.96,1.38-7.65-1.27
	c-5.96-5.86-15.39-4.54-20.42,2.22c-5.04,6.78-3.39,16.77,4.36,20.41c4.16,1.95,4.09,4.32,4.08,7.71
	c-0.04,41.99-0.06,83.99,0.1,125.98c0.01,3-1.24,3.96-3.52,5.07c-6.81,3.33-10.31,11.37-7.54,16.78c4.41,8.6,13.04,12.05,20.53,7.51
	c3.37-2.04,5.52-1.36,8.37,0.42c34.08,21.34,68.2,42.62,102.34,63.88c1.97,1.23,2.22,2.38,1.86,4.81
	c-1.53,10.28,9.28,18.26,17.52,15.02c6.43-2.52,10.12-7.17,10.27-13.96c0.04-1.88-0.87-3.72,1.57-5.65
	c9.78-7.7,20.89-13.34,31.23-20.14c9.57-6.3,19.44-12.36,29.48-18.06c14.68-8.34,28.01-18.89,42.92-26.93
	c2.55-1.37,4.75-1.67,6.78-0.04c7.22,5.79,15.06,1.35,18.64-4.1c3.77-5.74,1.04-16.08-5.13-19.14c-3.29-1.63-4.05-4.2-4.04-7.13
	c0.01-9.11-0.57-18.17,0.03-27.36c1.02-15.49,0.42-31.1,0.28-46.65c-0.13-13.65-0.45-27.29-0.92-40.93
	c-0.27-7.86-0.45-14.76,8.08-19.72c6.6-3.84,6.21-13.1,0.91-18.83c-5.39-5.82-14.82-6.5-19.92-0.99c-2.39,2.58-4.38,2.76-7.35,1.5
	c-8.97-3.79-18.03-7.35-27.02-11.08c-1.93-0.8-3.75-1.87-5,0.77c-1.43,3.03,1.62,3.06,2.99,4.09c0.89,0.66,2.13,0.84,3.2,1.27
	c8.23,3.34,16.52,6.55,24.67,10.08c5.04,2.19,5.44,8.95,0.75,11.97c-8.34,5.39-16.83,10.53-25.17,15.91
	c-1.21,0.78-3.97,1.08-2.45,3.73c1.45,2.53,3.16,1.92,5.29,0.54c8.16-5.26,16.36-10.46,24.7-15.42c6.74-4,11.97-0.84,11.99,6.98
	c0.12,41.49,0.12,82.98,0.48,124.46c0.04,4.94-3.57,5.32-6.1,7.33c-2.41,1.91-4.37,0.89-6.61-0.58c-4.41-2.89-8.99-5.52-13.57-8.15
	c-1.33-0.76-2.86-2.95-4.35,0.03c-1.38,2.75,0.53,3.56,2.41,4.35c5.36,2.25,9.82,5.87,14.36,9.34c3.95,3.03,4.17,11.18,0.21,13.38
	c-7.75,4.31-14.9,9.58-22.51,13.99c-11.11,6.44-21.62,13.78-32.59,20.42c-16.29,9.85-32.3,20.16-48.41,30.31
	c-1.11,0.7-1.99,1.66-3.56,1.24c-5.45-1.44-8.35-5.11-8.42-11.1c-0.07-6.33-0.01-12.67-0.02-19c0-1.45,0.35-3.23-1.93-3.32
	c-2.54-0.1-1.82,1.92-1.83,3.22c-0.08,7.33-0.12,14.67-0.04,22c0.02,2.52-0.94,3.79-3.06,5.42c-4.2,3.23-7.55,2.67-11.38-0.16
	c-2.51-1.85-5.25-3.38-7.89-5.05c-29.97-18.85-59.85-37.83-90.02-56.36c-3.86-2.37-5.17-4.32-4.93-8.7
	c0.22-3.88,1.07-6.37,4.73-8.14c3.85-1.86,7.23-4.68,11.04-6.63c2.41-1.24,2.03-2.28,1.03-4.2c-1.28-2.47-2.48-1.27-3.91-0.36
	c-3.77,2.41-7.52,4.83-11.35,7.13c-6.59,3.96-12.68,0.52-12.68-7.23c0.02-40.99,0.14-81.98,0.04-122.97
	c-0.01-4.54,0.68-7.65,5.53-9.31c2.08-0.71,3.21-0.44,4.79,0.55c7,4.41,14.09,8.68,21.06,13.14c2.92,1.87,5.17,2.52,6.31-1.99
	c-7.94-4.98-15.86-10.11-23.94-14.96c-3.85-2.31-2.18-5.74-2.44-8.83c-0.24-2.9,2.2-2.91,3.93-3.59
	c14.39-5.68,28.77-11.38,43.2-16.94C179.87,137.76,186.75,133.84,192.2,126.76z M298.07,124.76c-1.93-0.15-2.45,0.45-2.43,1.38
	c0.03,1.75-0.91,3.79,0.92,5.09c3.54,2.51,7.59,3.94,11.72,5.12c1.68,0.48,2.67-1.06,3.76-1.99c0.71-0.6,0.76-1.89,0.15-2.22
	C307.29,129.46,302.3,126.95,298.07,124.76z"/>
<path class="st1" d="M437.97,223.94c0,30.33,0.27,60.66-0.15,90.99c-0.14,9.92,0.02,20.22-4.83,29.42
	c-2.57,4.89-4.63,10.17-7.58,14.67c-5.17,7.89-10.43,16.09-18.39,21.6c-3.17,2.2-6.09,4.73-9.55,6.67
	c-7.73,4.34-14.67,10.13-22.52,14.18c-11.97,6.17-22.81,14.13-34.62,20.52c-8.78,4.75-17.37,9.88-25.94,15.02
	c-13.78,8.26-27.46,16.7-41.21,25c-2.5,1.51-5.34,2.52-7.72,4.2c-15.36,10.88-29.99,8.73-45.11-1.12
	c-14.28-9.3-29.27-17.51-43.97-26.15c-24.87-14.62-49.76-29.21-74.64-43.8c-8.55-5.01-16.96-10.22-24.12-17.17
	c-14.29-13.85-23.61-30.52-27.36-50.04c-2.23-11.61-1.23-23.48-1.24-35.24c-0.04-51.83,0.24-103.65-0.1-155.48
	c-0.08-12.14,6.88-22.91,19.52-27.2c21.96-7.44,43.81-15.22,65.66-22.99c31.45-11.17,62.86-22.48,94.31-33.63
	c1.59-0.56,3.66-2.03,5.07-0.73c1.34,1.24,0.44,3.44,0.17,5.25c-1.24,8.47-3.6,16.57-7.53,24.21c-1.18,2.3-2.74,4-5.29,4.89
	c-44.08,15.45-88.13,30.97-132.21,46.39c-10.83,3.79-10.89,3.65-10.89,14.99c0.01,48.99,0.23,97.98-0.12,146.97
	c-0.07,9.95-0.47,19.82,1.82,29.53c4.64,19.67,16.64,33.7,33.82,43.83c37.08,21.88,74.09,43.89,111.11,65.87
	c5.28,3.13,10.59,6.22,15.71,9.61c4.46,2.96,8.78,0.72,11.59-1.57c6.41-5.2,13.58-9.06,20.63-12.98
	c17.22-9.57,33.5-20.73,50.88-29.96c7.37-3.91,15-7.85,21.75-12.28c7.35-4.81,15.07-9.08,22.47-13.81c4.28-2.74,8.89-4.8,13.07-7.96
	c6.98-5.27,13.33-11.01,18.45-18c8.32-11.36,12.27-24.29,12.28-38.32c0.03-54.33-0.04-108.65-0.07-162.98
	c-0.01-8.81-0.04-8.75-8.46-11.7c-32.89-11.51-65.73-23.14-98.66-34.52c-3.83-1.32-5.23-3.11-5.01-7.11
	c0.39-7.01-1.86-13.72-3.14-20.52c-0.3-1.61-1.43-3.25-0.21-4.68c1.42-1.67,3.1-0.21,4.55,0.29c27.16,9.44,54.31,18.91,81.45,28.41
	c12.85,4.5,25.68,9.05,38.51,13.59c12.44,4.4,17.82,11.86,17.82,24.8c0.01,29.66,0,59.33,0,88.99
	C437.99,223.94,437.98,223.94,437.97,223.94z"/>
<path class="st2" d="M334.15,286.22c-0.61,1.89-1.68,3.49-3.09,4.87c-2.61,0.23-3.12,1.93-2.89,4.14c0,0,0.05-0.05,0.05-0.05
	c-3.33,0.04-4.15,3.19-6.1,4.93c-1.81-0.26-3.14,0.7-4.52,1.67c-2.35,1.64-5.05,1.68-7.67,1.06c-3.81-0.89-4.4-2.8-2.16-5.93
	c2.12-2.95,4.31-5.82,6.04-9.07c6.17-11.59,6.93-24.03,6.22-36.74c-0.22-3.87-1.95-8.1-5.6-8.36c-3.59-0.26-6.93-1.58-10.44-1.57
	c-2.85,0.01-5.72-2.16-8.28-0.88c-4.86,2.42-9.6,1.21-14.52,0.92c-5.38-0.32-8.05-4.64-12.02-7c1.44-7.15-4.23-8.22-8.76-10.36
	c-1.13-0.54-1.92-2.16-3.41-1.35c-1.44,0.77-0.74,2.38-0.91,3.63c-3.48-2.2-5-6.04-7.57-8.98c-3-3.45-3.5-8.58-7.74-11.1
	c0,0,0.12-0.28,0.12-0.28c0.01-0.8-0.35-1.37-1.06-1.73c0,0,0.08-0.3,0.08-0.3c-0.33-0.56-0.67-1.12-1-1.68c0,0-0.01-0.36-0.01-0.36
	c0.03-0.66,0.21-1.36,0.06-1.98c-2.75-11.68-3.87-23.42-2-35.4c0.35-2.27,2.31-4.67,0.41-7.13c0.23-0.69,0.45-1.38,0.68-2.07
	c1.01-0.57,1.01-1.49,0.87-2.47l-0.11-0.26c0,0,0.17-0.23,0.17-0.23c1.03-0.57,1.08-1.51,0.93-2.52c-0.16-0.19-0.14-0.36,0.07-0.5
	c1.04-0.57,1.08-1.51,0.91-2.53c0.18-1.19,0.37-2.38,0.55-3.58c1.45-0.22,2.2-1.21,1.17-2.25c-1.12-1.14-1.88,0.2-2.49,1.13
	c-2.68,2.73-5.36,5.45-8.04,8.18c-0.28,0.41-0.56,0.82-0.84,1.23c0,0,0.09-0.04,0.09-0.04c-2.53-0.09-2.18,1.67-2.1,3.25
	c0.14,0.18,0.12,0.35-0.05,0.5c-0.32,0.42-0.65,0.84-0.97,1.26c0,0,0.08-0.1,0.08-0.1c-0.36,0.42-0.73,0.84-1.09,1.27
	c0.07,0.23,0.02,0.42-0.16,0.58c-3.09,3.34-6.87,6.2-7.94,11c-1.25,0.05-2.16,0.72-3.01,1.56c-11.45,11.31-22.68,22.87-32.36,35.72
	c-6.43,8.54-12.85,17.13-17.54,26.99c-3.09,6.49-4.51,13.48-7.64,19.86c-2.38,4.85-5.61,5.51-9.79,2.06
	c-1.13-0.93-2.33-2.82-3.72-1.84c-4.59,3.22-3.55-0.88-4.33-2.96c-0.92-2.44-0.41-4.94-0.63-7.4c0.05-2.5-1.34-4.76-0.96-7.36
	c3.18-21.4,12.5-39.88,24.94-57.47c14.86-21.01,33.64-38.39,50.29-57.72c13.53-15.71,25.8-31.95,30.35-52.74
	c2.62-11.97,3.11-23.77-1.34-35.56c-1.42-3.76-3.98-7.63-2.23-12.1c0.31,0.01,0.63,0.02,0.94,0.03c0,0,0.03,0.02,0.03,0.02
	c0.33,0.32,0.65,0.65,0.98,0.97c0,0,0.01,0.02,0.01,0.02c0.2,3.9,3.69,5.77,5.45,8.73c10.76,18.12,16.95,37.39,15.58,58.71
	c-0.2,3.15,0.04,6.26,0.88,9.37c0.79,2.93,1.55,3.53,4.34,1.61c3.67-2.53,6.22-5.91,8.73-9.4c0.71-0.99,1.33-2.04,2.68-1.84
	c1.48,0.22,1.36,1.72,1.78,2.73c1.05,2.56,0.33,5.27,0.57,7.9c0.51,5.38-1.14,10.89,1,16.17c0.08,2.5-0.21,4.92-0.86,7.37
	c-3.68,14.01-7.79,27.94-10.63,42.13c-2.29,11.42,1.49,22.02,8.16,31.45c3.14,4.44,10.93,6.91,15.03,5.15
	c5.71-2.44,8.38-7.91,7.13-14.83c-0.32-1.79-1.09-3.51-1.32-5.3c-1.48-11.62-1.75-22.89,10.5-30.86c0,2.92-0.07,5.34,0.01,7.76
	c0.31,9.27,2.4,18.07,7.49,25.93c6.74,10.39,13.65,20.65,18.9,31.93c10.44,22.46,8.55,44.35-2.78,65.85
	C334.96,283.15,333.73,284.37,334.15,286.22z"/>
<path class="st3" d="M192.2,126.76c-5.45,7.08-12.33,11-19.97,13.94c-14.43,5.56-28.81,11.27-43.2,16.94
	c-1.73,0.68-4.17,0.68-3.93,3.59c0.25,3.09-1.42,6.52,2.44,8.83c8.09,4.85,16.01,9.98,23.94,14.96c-1.14,4.51-3.4,3.86-6.31,1.99
	c-6.97-4.46-14.06-8.73-21.06-13.14c-1.57-0.99-2.71-1.26-4.79-0.55c-4.85,1.65-5.54,4.77-5.53,9.31
	c0.1,40.99-0.02,81.98-0.04,122.97c0,7.74,6.08,11.19,12.68,7.23c3.83-2.3,7.59-4.72,11.35-7.13c1.43-0.91,2.63-2.11,3.91,0.36
	c1,1.92,1.38,2.97-1.03,4.2c-3.81,1.96-7.19,4.77-11.04,6.63c-3.67,1.78-4.52,4.27-4.73,8.14c-0.24,4.38,1.06,6.33,4.93,8.7
	c30.16,18.53,60.05,37.52,90.02,56.36c2.64,1.66,5.38,3.2,7.89,5.05c3.83,2.83,7.19,3.39,11.38,0.16c2.12-1.63,3.09-2.9,3.06-5.42
	c-0.07-7.33-0.03-14.67,0.04-22c0.01-1.3-0.71-3.32,1.83-3.22c2.28,0.09,1.93,1.86,1.93,3.32c0.02,6.33-0.05,12.67,0.02,19
	c0.07,5.99,2.97,9.66,8.42,11.1c1.57,0.41,2.45-0.54,3.56-1.24c16.11-10.14,32.12-20.45,48.41-30.31
	c10.97-6.64,21.47-13.98,32.59-20.42c7.62-4.41,14.76-9.68,22.51-13.99c3.96-2.21,3.74-10.36-0.21-13.38
	c-4.53-3.47-9-7.1-14.36-9.34c-1.88-0.79-3.79-1.6-2.41-4.35c1.5-2.98,3.02-0.79,4.35-0.03c4.58,2.62,9.16,5.26,13.57,8.15
	c2.24,1.47,4.2,2.49,6.61,0.58c2.53-2.01,6.14-2.39,6.1-7.33c-0.36-41.49-0.36-82.97-0.48-124.46c-0.02-7.83-5.26-10.98-11.99-6.98
	c-8.34,4.96-16.54,10.16-24.7,15.42c-2.13,1.37-3.84,1.98-5.29-0.54c-1.52-2.65,1.25-2.95,2.45-3.73
	c8.34-5.38,16.84-10.52,25.17-15.91c4.69-3.03,4.29-9.79-0.75-11.97c-8.15-3.53-16.44-6.74-24.67-10.08
	c-1.07-0.43-2.32-0.61-3.2-1.27c-1.37-1.02-4.41-1.06-2.99-4.09c1.24-2.64,3.07-1.58,5-0.77c8.99,3.73,18.06,7.29,27.02,11.08
	c2.97,1.26,4.96,1.08,7.35-1.5c5.1-5.51,14.53-4.83,19.92,0.99c5.3,5.73,5.7,14.99-0.91,18.83c-8.52,4.96-8.35,11.86-8.08,19.72
	c0.47,13.64,0.79,27.29,0.92,40.93c0.15,15.55,0.74,31.16-0.28,46.65c-0.6,9.19-0.02,18.24-0.03,27.36c0,2.93,0.75,5.5,4.04,7.13
	c6.17,3.06,8.9,13.4,5.13,19.14c-3.58,5.45-11.42,9.88-18.64,4.1c-2.04-1.63-4.24-1.34-6.78,0.04
	c-14.91,8.04-28.24,18.59-42.92,26.93c-10.04,5.7-19.92,11.77-29.48,18.06c-10.33,6.8-21.44,12.44-31.23,20.14
	c-2.45,1.92-1.53,3.76-1.57,5.65c-0.15,6.8-3.84,11.44-10.27,13.96c-8.24,3.23-19.05-4.74-17.52-15.02
	c0.36-2.43,0.11-3.58-1.86-4.81c-34.14-21.25-68.26-42.53-102.34-63.88c-2.84-1.78-5-2.46-8.37-0.42
	c-7.49,4.54-16.12,1.1-20.53-7.51c-2.77-5.41,0.72-13.45,7.54-16.78c2.28-1.12,3.53-2.07,3.52-5.07
	c-0.16-41.99-0.13-83.98-0.1-125.98c0-3.39,0.08-5.76-4.08-7.71c-7.75-3.63-9.4-13.63-4.36-20.41c5.03-6.76,14.46-8.07,20.42-2.22
	c2.69,2.65,4.64,2.49,7.65,1.27C149.05,144.06,170.28,135.57,192.2,126.76z"/>
<path class="st4" d="M335.09,311.17c-0.64,0.97-1.28,1.95-1.92,2.92c-2.93,1.1-5.4,2.54-4.6,6.34c0,0-0.1,0.13-0.1,0.13
	c-3.27-0.88-4.56,1.97-5.85,3.72c-7.73,10.53-19.03,16.37-29.77,22.87c-9.64,5.83-20.23,8.57-31.56,9.62
	c-11.12,1.02-22.02,2.39-33.03-0.69c-4.59-1.28-8.21-4.2-12.39-6.13c-5.2-2.4-9.58-5.79-13.1-10.36c-1.49-1.93-2.88-4.17-5.68-4.52
	c-0.31-0.7-0.62-1.4-0.93-2.09c-0.69-1.63-1.29-3.31-2.08-4.89c-1.94-3.89-4.96-7.32-4.96-12.01c3.22,1.03,6.43,0.13,9.65,0.08
	c3.21-0.04,4.29-1.36,4.4-4.48c0.11-3.19-1.09-6.57,0.94-9.59c3.34,6.86,7.01,13.71,12.57,18.87c10.7,9.93,22.28,18.12,37.84,19.46
	c9.38,0.81,18.89,1.59,27.65-0.85c19.25-5.36,36.49-14.85,50.06-30.08c1.16-1.31,2.12-2.55,1.88-4.39c0,0-0.01,0.01-0.01,0.01
	c1.44-0.12,2.75,0.26,3.97,1.01c0.08,0.87-0.35,1.46-1.02,1.94C335.02,308.22,335.03,309.68,335.09,311.17z"/>
<path class="st5" d="M219.1,169.04c1.07-4.8,4.85-7.65,7.94-11c-1.88,6-5.06,11.49-6.57,17.67c-2.48,10.14-3.98,20.3-1.8,30.64
	c0.8,3.82-0.03,6.85-2.61,9.58c-7.31,7.74-14.72,15.4-21.93,23.24c-11.69,12.72-20.37,27.11-23.55,44.34
	c-4.19,22.71,2.49,42.42,16.67,59.88c-5.32-0.85-9.41-4.48-13.34-7.92c-8.76-7.66-16.52-16.12-22.9-26.12
	c-20.31-31.82-20.81-64.93-7.73-99.07c9.64-25.16,26.82-45.36,44.67-64.9c13.36-14.62,27.65-28.39,39.19-44.61
	c19.54-27.46,24.18-56.06,6.6-86.36c-0.5-0.86-0.93-1.77-1.33-2.68c-0.11-0.26-0.02-0.61-0.02-1.72c12.25,7.56,23.18,15.87,31.77,27
	c0,0-0.35,0.33-0.35,0.33c-4.37-2.3-6.9-6.65-10.67-9.58c-3.17-2.47-5.49-6.3-10.07-6.65c0,0-0.01-0.02-0.01-0.02
	c-0.33-0.32-0.65-0.65-0.98-0.97c0,0-0.03-0.02-0.03-0.02c-0.3-0.57-0.61-0.61-0.94-0.03c-1.75,4.47,0.81,8.34,2.23,12.1
	c4.45,11.79,3.96,23.59,1.34,35.56c-4.55,20.79-16.83,37.03-30.35,52.74c-16.64,19.33-35.43,36.71-50.29,57.72
	c-12.44,17.59-21.76,36.07-24.94,57.47c-0.39,2.6,1.01,4.86,0.96,7.36c-0.55,0.32-1.62,0.7-1.59,0.94
	c0.62,5.17-1.71,10.5,0.58,15.52c0.74,1.62,0.98,3.07,0.8,4.77c-1.02,9.72,1.01,18.87,4.53,27.94c3,7.75,7.72,14.41,12.05,21.31
	c3.98,6.35,9.92,10.99,15.5,15.87c0.67,0.59,1.53,0.9,2.29,0.41c0.93-0.61,0.44-1.39-0.07-2.11c-4.61-6.57-4.53-14.65-6.96-21.93
	c-2.13-6.41-1.24-12.89,0.85-19.31c3.13-9.61,2.27-20.11,9.5-28.89c7.87-9.56,14.14-20.41,23.44-28.91
	c5.14-4.7,10.05-9.68,14.39-15.19c1.66-2.11,2.22-4.08,1.14-6.39c-2.33-4.96-1.59-10.04-0.84-15.15
	C216.81,184.28,217.96,176.66,219.1,169.04z"/>
<path class="st5" d="M334.15,286.22c-0.42-1.85,0.81-3.06,1.58-4.53c11.33-21.5,13.22-43.39,2.78-65.85
	c-5.25-11.28-12.16-21.54-18.9-31.93c-5.1-7.86-7.18-16.66-7.49-25.93c-0.08-2.42-0.01-4.84-0.01-7.76
	c-12.25,7.97-11.98,19.24-10.5,30.86c0.23,1.79,1,3.51,1.32,5.3c1.24,6.92-1.42,12.38-7.13,14.83c-4.1,1.75-11.89-0.71-15.03-5.15
	c-6.67-9.42-10.44-20.02-8.16-31.45c2.84-14.19,6.94-28.12,10.63-42.13c0.65-2.46,0.94-4.87,0.86-7.37c1.67-2.05,2.07-4.47,1.97-7
	c-0.3-7.45,0.18-14.88-0.81-22.38c-1.86-14.16-6.86-26.82-15.2-38.35c-2.29-3.16-5.37-5.94-6.23-10.03c0,0,0.35-0.33,0.35-0.33
	c13.54,15.2,21.53,32.78,23.9,53.12c2.38,20.36-3.81,39.14-9.55,58.04c-4.22,13.89-6.15,27.6,0.76,41.23
	c1.3,2.56,2.9,4.85,5.04,6.77c3.42,3.07,7.14,5.04,11.73,2.67c3.86-2,5.87-7.23,4.72-12.14c-1.71-7.3-3.38-14.55-1.55-22.14
	c2.2-9.11,9.55-18.52,17.11-21.37c0.48,3.8-1.22,7.26-1.5,10.93c-0.82,10.75,2.28,20.3,7.74,29.39c5.72,9.55,11.67,19.02,16.55,29
	c11.67,23.87,10.46,47.6-2.35,70.79C336.15,284.41,335.04,285.25,334.15,286.22z"/>
<path class="st2" d="M204.11,302.08c-2.03,3.02-0.83,6.39-0.94,9.59c-0.11,3.12-1.18,4.44-4.4,4.48c-3.22,0.04-6.44,0.95-9.65-0.08
	c-0.11-2.68-1.5-5.19-1.03-7.95c1.62-1.6,1.19-2.58-0.92-3.06c-0.09-9.25,0.56-18.36,3.76-27.2c1.51-4.17,4.71-7.63,5.02-12.26
	c-0.03-0.25,0.08-0.41,0.32-0.47c4.88-1.08,5.25-7.51,10.76-8.9C200.89,271.5,199.17,286.62,204.11,302.08z"/>
<path class="st5" d="M204.11,302.08c-4.94-15.46-3.22-30.58,2.91-45.85c-5.51,1.4-5.88,7.82-10.76,8.9
	c4.72-8.94,13.42-18.01,18.44-19.13c-0.14,2.29-1.52,4.01-2.56,5.84c-22.65,39.84,1.49,83.97,47.22,86.57
	c28.68,1.63,51.75-9.75,71.26-29.81c1.15-1.18,2.32-2.34,3.48-3.51c0.24,1.84-0.72,3.09-1.88,4.39
	c-13.56,15.23-30.8,24.72-50.06,30.08c-8.77,2.44-18.27,1.66-27.65,0.85c-15.56-1.34-27.14-9.53-37.84-19.46
	C211.12,315.79,207.45,308.94,204.11,302.08z"/>
<path class="st5" d="M240.78,206.03c4.24,2.52,4.74,7.65,7.74,11.1c2.57,2.95,4.09,6.78,7.57,8.98
	c6.02,6.19,11.99,12.43,18.09,18.55c7.36,7.39,13.33,15.48,15.67,25.98c4.1,18.35-0.22,36.4-16.56,47.38
	c-2.12,1.43-3.98,3.25-5.92,4.86c1.1,1.67,2.38,1.17,3.46,1.23c11.06,0.61,20.69-3.97,30.27-8.53c7.97-3.8,15.06-8.9,21.03-15.47
	c1.95-1.74,2.77-4.89,6.1-4.93c-4.38,8.25-11.85,13.37-19.29,18.28c-15.01,9.92-31.63,14.53-49.69,13.7
	c-2.84-0.13-5.52-0.42-8.26-2.72c8.03-1.27,15.31-3.33,21.47-8.11c18.61-14.43,22.47-37.74,9.84-57.92
	c-6.99-11.18-17.11-19.43-26.01-28.83C249.75,222.68,244.15,215.06,240.78,206.03z"/>
<path class="st5" d="M197.08,335.07c2.8,0.35,4.2,2.59,5.68,4.52c3.52,4.57,7.9,7.95,13.1,10.36c4.18,1.93,7.8,4.84,12.39,6.13
	c11.01,3.08,21.91,1.71,33.03,0.69c11.33-1.04,21.93-3.78,31.56-9.62c10.74-6.5,22.03-12.33,29.77-22.87
	c1.28-1.75,2.58-4.59,5.85-3.72c-15.99,20.56-36.86,33.38-62.29,38.44c-18.31,3.64-36.14,2.28-52.53-7.86
	C206.93,346.99,201.02,342.05,197.08,335.07z"/>
<path class="st5" d="M188.08,308.12c-0.47,2.75,0.92,5.27,1.03,7.95c-0.01,4.69,3.02,8.12,4.96,12.01c0.79,1.58,1.39,3.26,2.08,4.89
	c-3.14-1.75-4.22-5.08-5.52-7.98c-9.22-20.72-7.03-40.53,5.31-59.38c-0.3,4.63-3.51,8.09-5.02,12.26c-3.2,8.84-3.85,17.95-3.76,27.2
	C187.1,306.2,186.93,307.36,188.08,308.12z"/>
<path class="st3" d="M298.07,124.76c4.23,2.19,9.22,4.7,14.12,7.38c0.61,0.33,0.56,1.62-0.15,2.22c-1.09,0.93-2.08,2.47-3.76,1.99
	c-4.13-1.17-8.18-2.61-11.72-5.12c-1.83-1.3-0.9-3.35-0.92-5.09C295.63,125.21,296.14,124.61,298.07,124.76z"/>
<path class="st5" d="M338.07,306.11c-1.22-0.74-2.53-1.13-3.97-1.01c5.56-8.69,10.37-17.8,14.88-27.1
	c-0.21,5.7-2.05,11.04-5.03,15.56C341.32,297.56,342.35,303.07,338.07,306.11z"/>
<path class="st5" d="M237.38,157.16c1.9,2.46-0.05,4.86-0.41,7.13c-1.87,11.98-0.75,23.71,2,35.4c0.15,0.62-0.03,1.32-0.06,1.98
	c-4.4-10.44-5.39-21.35-4.18-32.49C235.17,165.11,235.57,160.96,237.38,157.16z"/>
<path class="st5" d="M328.56,320.43c-0.8-3.81,1.67-5.24,4.6-6.34C332.17,316.59,330.73,318.78,328.56,320.43z"/>
<path class="st5" d="M328.18,295.22c-0.23-2.21,0.28-3.91,2.89-4.14C331.04,293.12,330.04,294.47,328.18,295.22z"/>
<path class="st5" d="M240.13,141.9c0.61-0.93,1.37-2.27,2.49-1.13c1.03,1.04,0.28,2.03-1.17,2.25
	C241.01,142.65,240.57,142.27,240.13,141.9z"/>
<path class="st5" d="M229.23,154.52c-0.08-1.59-0.43-3.35,2.1-3.25C231.5,152.91,230.28,153.66,229.23,154.52z"/>
<path class="st5" d="M335.09,311.17c-0.06-1.49-0.07-2.95,1.96-3.12C336.89,309.4,336.25,310.45,335.09,311.17z"/>
<path class="st5" d="M238.93,152.62c0.14,0.97,0.14,1.9-0.87,2.47C237.91,154.11,238.05,153.24,238.93,152.62z"/>
<path class="st5" d="M239.91,149.62c0.16,1.01,0.1,1.94-0.93,2.52C238.83,151.13,239.03,150.25,239.91,149.62z"/>
<path class="st5" d="M240.89,146.6c0.17,1.01,0.13,1.95-0.91,2.53C239.84,148.12,240.04,147.24,240.89,146.6z"/>
<path class="st5" d="M227.2,157.46c0.36-0.42,0.73-0.84,1.09-1.27C227.93,156.61,227.56,157.04,227.2,157.46z"/>
<path class="st5" d="M238.92,202.03c0.33,0.56,0.67,1.12,1,1.68C239.23,203.37,238.91,202.8,238.92,202.03z"/>
<path class="st5" d="M239.84,204.02c0.71,0.36,1.06,0.94,1.06,1.73C240.17,205.4,239.82,204.82,239.84,204.02z"/>
<path class="st5" d="M228.21,156.29c0.32-0.42,0.65-0.84,0.97-1.26C229.31,155.79,228.86,156.12,228.21,156.29z"/>
<path class="st5" d="M231.24,151.31c0.28-0.41,0.56-0.82,0.84-1.23C232.17,150.74,231.88,151.14,231.24,151.31z"/>
<path class="st4" d="M219.1,169.04c-1.14,7.62-2.29,15.24-3.41,22.87c-0.75,5.1-1.49,10.19,0.84,15.15
	c1.09,2.32,0.52,4.28-1.14,6.39c-4.34,5.52-9.25,10.49-14.39,15.19c-9.29,8.5-15.57,19.35-23.44,28.91
	c-7.23,8.79-6.37,19.29-9.5,28.89c-2.09,6.42-2.99,12.9-0.85,19.31c2.42,7.28,2.35,15.36,6.96,21.93c0.51,0.72,1,1.5,0.07,2.11
	c-0.75,0.49-1.62,0.18-2.29-0.41c-5.58-4.89-11.52-9.53-15.5-15.87c-4.33-6.9-9.04-13.56-12.05-21.31
	c-3.52-9.07-5.55-18.22-4.53-27.94c0.18-1.7-0.06-3.15-0.8-4.77c-2.3-5.02,0.04-10.35-0.58-15.52c-0.03-0.25,1.03-0.63,1.59-0.94
	c0.21,2.46-0.29,4.96,0.63,7.4c0.78,2.07-0.26,6.18,4.33,2.96c1.39-0.98,2.59,0.91,3.72,1.84c4.18,3.45,7.41,2.79,9.79-2.06
	c3.13-6.38,4.55-13.36,7.64-19.86c4.69-9.86,11.11-18.45,17.54-26.99c9.68-12.84,20.91-24.41,32.36-35.72
	C216.94,169.76,217.85,169.09,219.1,169.04z"/>
<path class="st4" d="M322.12,300.11c-5.97,6.57-13.05,11.68-21.03,15.47c-9.58,4.56-19.21,9.14-30.27,8.53
	c-1.08-0.06-2.36,0.44-3.46-1.23c1.94-1.61,3.8-3.43,5.92-4.86c16.34-10.98,20.66-29.03,16.56-47.38
	c-2.35-10.5-8.31-18.59-15.67-25.98c-6.1-6.12-12.06-12.36-18.09-18.55c0.18-1.25-0.52-2.86,0.91-3.63c1.49-0.8,2.28,0.82,3.41,1.35
	c4.53,2.14,10.2,3.21,8.76,10.36c3.97,2.36,6.64,6.68,12.02,7c4.92,0.29,9.67,1.5,14.52-0.92c2.56-1.27,5.43,0.89,8.28,0.88
	c3.5-0.01,6.84,1.32,10.44,1.57c3.65,0.26,5.38,4.49,5.6,8.36c0.71,12.7-0.04,25.15-6.22,36.74c-1.73,3.25-3.92,6.12-6.04,9.07
	c-2.24,3.13-1.65,5.04,2.16,5.93c2.62,0.62,5.32,0.58,7.67-1.06C318.98,300.81,320.31,299.84,322.12,300.11z"/>
<path class="st4" d="M263.83,37.35c0.86,4.09,3.94,6.87,6.23,10.03c8.35,11.53,13.34,24.19,15.2,38.35
	c0.99,7.5,0.51,14.93,0.81,22.38c0.1,2.53-0.3,4.95-1.97,7c-2.13-5.28-0.49-10.79-1-16.17c-0.25-2.63,0.48-5.34-0.57-7.9
	c-0.42-1.02-0.3-2.51-1.78-2.73c-1.35-0.2-1.97,0.85-2.68,1.84c-2.51,3.49-5.06,6.86-8.73,9.4c-2.78,1.92-3.55,1.31-4.34-1.61
	c-0.84-3.11-1.08-6.22-0.88-9.37c1.37-21.32-4.82-40.59-15.58-58.71c-1.75-2.96-5.25-4.83-5.45-8.73c4.58,0.35,6.9,4.19,10.07,6.65
	C256.93,30.7,259.46,35.04,263.83,37.35z"/>
<path class="st4" d="M242.1,20.12c0.33,0.32,0.66,0.65,0.98,0.97C242.75,20.77,242.43,20.45,242.1,20.12z"/>
<path class="st4" d="M241.13,20.07c0.33-0.58,0.64-0.55,0.94,0.03C241.75,20.09,241.44,20.09,241.13,20.07z"/>
<path class="st4" d="M188.08,308.12c-1.15-0.77-0.98-1.93-0.92-3.06C189.27,305.54,189.7,306.53,188.08,308.12z"/>
</svg>
